<svg xmlns="http://www.w3.org/2000/svg"><symbol id="plus" viewBox="0 0 24 24"><path d="M12 5l0 14" />
  <path d="M5 12l14 0" />
</symbol><symbol id="stack-2" viewBox="0 0 24 24"><path d="M12 4l-8 4l8 4l8 -4l-8 -4" />
  <path d="M4 12l8 4l8 -4" />
  <path d="M4 16l8 4l8 -4" />
</symbol><symbol id="pencil" viewBox="0 0 24 24"><path d="M4 20h4l10.5 -10.5a2.828 2.828 0 1 0 -4 -4l-10.5 10.5v4" />
  <path d="M13.5 6.5l4 4" />
</symbol><symbol id="trash" viewBox="0 0 24 24"><path d="M4 7l16 0" />
  <path d="M10 11l0 6" />
  <path d="M14 11l0 6" />
  <path d="M5 7l1 12a2 2 0 0 0 2 2h8a2 2 0 0 0 2 -2l1 -12" />
  <path d="M9 7v-3a1 1 0 0 1 1 -1h4a1 1 0 0 1 1 1v3" />
</symbol><symbol id="scan" viewBox="0 0 24 24"><path d="M4 7v-1a2 2 0 0 1 2 -2h2" />
  <path d="M4 17v1a2 2 0 0 0 2 2h2" />
  <path d="M16 4h2a2 2 0 0 1 2 2v1" />
  <path d="M16 20h2a2 2 0 0 0 2 -2v-1" />
  <path d="M5 12l14 0" />
</symbol><symbol id="settings" viewBox="0 0 24 24"><path d="M10.325 4.317c.426 -1.756 2.924 -1.756 3.35 0a1.724 1.724 0 0 0 2.573 1.066c1.543 -.94 3.31 .826 2.37 2.37a1.724 1.724 0 0 0 1.065 2.572c1.756 .426 1.756 2.924 0 3.35a1.724 1.724 0 0 0 -1.066 2.573c.94 1.543 -.826 3.31 -2.37 2.37a1.724 1.724 0 0 0 -2.572 1.065c-.426 1.756 -2.924 1.756 -3.35 0a1.724 1.724 0 0 0 -2.573 -1.066c-1.543 .94 -3.31 -.826 -2.37 -2.37a1.724 1.724 0 0 0 -1.065 -2.572c-1.756 -.426 -1.756 -2.924 0 -3.35a1.724 1.724 0 0 0 1.066 -2.573c-.94 -1.543 .826 -3.31 2.37 -2.37c1 .608 2.296 .07 2.572 -1.065z" />
  <path d="M9 12a3 3 0 1 0 6 0a3 3 0 0 0 -6 0" />
</symbol><symbol id="x" viewBox="0 0 24 24"><path d="M18 6l-12 12" />
  <path d="M6 6l12 12" />
</symbol><symbol id="arrow-up" viewBox="0 0 24 24"><path d="M12 5l0 14" />
  <path d="M18 11l-6 -6" />
  <path d="M6 11l6 -6" />
</symbol><symbol id="message" viewBox="0 0 24 24"><path d="M8 9h8" />
  <path d="M8 13h6" />
  <path d="M18 4a3 3 0 0 1 3 3v8a3 3 0 0 1 -3 3h-5l-5 3v-3h-2a3 3 0 0 1 -3 -3v-8a3 3 0 0 1 3 -3h12z" />
</symbol><symbol id="layout-sidebar" viewBox="0 0 24 24"><path d="M4 4m0 2a2 2 0 0 1 2 -2h12a2 2 0 0 1 2 2v12a2 2 0 0 1 -2 2h-12a2 2 0 0 1 -2 -2z" />
  <path d="M9 4l0 16" />
</symbol><symbol id="paperclip" viewBox="0 0 24 24"><path d="M15 7l-6.5 6.5a1.5 1.5 0 0 0 3 3l6.5 -6.5a3 3 0 0 0 -6 -6l-6.5 6.5a4.5 4.5 0 0 0 9 9l6.5 -6.5" />
</symbol><symbol id="player-stop" viewBox="0 0 24 24"><path d="M5 5m0 2a2 2 0 0 1 2 -2h10a2 2 0 0 1 2 2v10a2 2 0 0 1 -2 2h-10a2 2 0 0 1 -2 -2z" />
</symbol><symbol id="refresh" viewBox="0 0 24 24"><path d="M20 11a8.1 8.1 0 0 0 -15.5 -2m-.5 -4v4h4" />
  <path d="M4 13a8.1 8.1 0 0 0 15.5 2m.5 4v-4h-4" />
</symbol><symbol id="adjustments" viewBox="0 0 24 24"><path d="M4 10a2 2 0 1 0 4 0a2 2 0 0 0 -4 0" />
  <path d="M6 4v4" />
  <path d="M6 12v8" />
  <path d="M10 16a2 2 0 1 0 4 0a2 2 0 0 0 -4 0" />
  <path d="M12 4v10" />
  <path d="M12 18v2" />
  <path d="M16 7a2 2 0 1 0 4 0a2 2 0 0 0 -4 0" />
  <path d="M18 4v1" />
  <path d="M18 9v11" />
</symbol><symbol id="chevron-left" viewBox="0 0 24 24"><path d="M15 6l-6 6l6 6" />
</symbol><symbol id="search" viewBox="0 0 24 24"><circle cx="10" cy="10" r="7"/><path d="m15 15 6 6"/></symbol><symbol id="brand-openai" viewBox="0 0 24 24"><ns0:path xmlns:ns0="http://www.w3.org/2000/svg" d="M11.217 19.384a3.501 3.501 0 0 0 6.783 -1.217v-5.167l-6 -3.35" />
  <ns0:path xmlns:ns0="http://www.w3.org/2000/svg" d="M5.214 15.014a3.501 3.501 0 0 0 4.446 5.266l4.34 -2.534v-6.946" />
  <ns0:path xmlns:ns0="http://www.w3.org/2000/svg" d="M6 7.63c-1.391 -.236 -2.787 .395 -3.534 1.689a3.474 3.474 0 0 0 1.271 4.745l4.263 2.514l6 -3.348" />
  <ns0:path xmlns:ns0="http://www.w3.org/2000/svg" d="M12.783 4.616a3.501 3.501 0 0 0 -6.783 1.217v5.067l6 3.45" />
  <ns0:path xmlns:ns0="http://www.w3.org/2000/svg" d="M18.786 8.986a3.501 3.501 0 0 0 -4.446 -5.266l-4.34 2.534v6.946" />
  <ns0:path xmlns:ns0="http://www.w3.org/2000/svg" d="M18 16.302c1.391 .236 2.787 -.395 3.534 -1.689a3.474 3.474 0 0 0 -1.271 -4.745l-4.308 -2.514l-5.955 3.42" />
</symbol><symbol id="brand-claude" viewBox="0 0 24 24" fill="currentColor" stroke="none"><ns0:path xmlns:ns0="http://www.w3.org/2000/svg" d="m4.7144 15.9555 4.7174-2.6471.079-.2307-.079-.1275h-.2307l-.7893-.0486-2.6956-.0729-2.3375-.0971-2.2646-.1214-.5707-.1215-.5343-.7042.0546-.3522.4797-.3218.686.0608 1.5179.1032 2.2767.1578 1.6514.0972 2.4468.255h.3886l.0546-.1579-.1336-.0971-.1032-.0972L6.973 9.8356l-2.55-1.6879-1.3356-.9714-.7225-.4918-.3643-.4614-.1578-1.0078.6557-.7225.8803.0607.2246.0607.8925.686 1.9064 1.4754 2.4893 1.8336.3643.3035.1457-.1032.0182-.0728-.164-.2733-1.3539-2.4467-1.445-2.4893-.6435-1.032-.17-.6194c-.0607-.255-.1032-.4674-.1032-.7285L6.287.1335 6.6997 0l.9957.1336.419.3642.6192 1.4147 1.0018 2.2282 1.5543 3.0296.4553.8985.2429.8318.091.255h.1579v-.1457l.1275-1.706.2368-2.0947.2307-2.6957.0789-.7589.3764-.9107.7468-.4918.5828.2793.4797.686-.0668.4433-.2853 1.8517-.5586 2.9021-.3643 1.9429h.2125l.2429-.2429.9835-1.3053 1.6514-2.0643.7286-.8196.85-.9046.5464-.4311h1.0321l.759 1.1293-.34 1.1657-1.0625 1.3478-.8804 1.1414-1.2628 1.7-.7893 1.36.0729.1093.1882-.0183 2.8535-.607 1.5421-.2794 1.8396-.3157.8318.3886.091.3946-.3278.8075-1.967.4857-2.3072.4614-3.4364.8136-.0425.0304.0486.0607 1.5482.1457.6618.0364h1.621l3.0175.2247.7892.522.4736.6376-.079.4857-1.2142.6193-1.6393-.3886-3.825-.9107-1.3113-.3279h-.1822v.1093l1.0929 1.0686 2.0035 1.8092 2.5075 2.3314.1275.5768-.3218.4554-.34-.0486-2.2039-1.6575-.85-.7468-1.9246-1.621h-.1275v.17l.4432.6496 2.3436 3.5214.1214 1.0807-.17.3521-.6071.2125-.6679-.1214-1.3721-1.9246L14.38 17.959l-1.1414-1.9428-.1397.079-.674 7.2552-.3156.3703-.7286.2793-.6071-.4614-.3218-.7468.3218-1.4753.3886-1.9246.3157-1.53.2853-1.9004.17-.6314-.0121-.0425-.1397.0182-1.4328 1.9672-2.1796 2.9446-1.7243 1.8456-.4128.164-.7164-.3704.0667-.6618.4008-.5889 2.386-3.0357 1.4389-1.882.929-1.0868-.0062-.1579h-.0546l-6.3385 4.1164-1.1293.1457-.4857-.4554.0608-.7467.2307-.2429 1.9064-1.3114Z" /></symbol><symbol id="folder-plus" viewBox="0 0 24 24"><path d="M3 7V6a2 2 0 0 1 2-2h5l2 3h7a2 2 0 0 1 2 2v9a2 2 0 0 1-2 2H5a2 2 0 0 1-2-2V7z"/><path d="M9 13h6m-3-3v6"/></symbol><symbol id="folder-message" viewBox="0 0 24 24"><path d="M8 20H5a2 2 0 0 1-2-2V6a2 2 0 0 1 2-2h5l2 3h7a2 2 0 0 1 2 2"/><path d="M12 11h8a1 1 0 0 1 1 1v6a1 1 0 0 1-1 1h-4l-4 3v-3a1 1 0 0 1-1-1v-6a1 1 0 0 1 1-1z"/></symbol><symbol id="message-plus" viewBox="0 0 24 24"><path d="M6 4h12a3 3 0 0 1 3 3v8a3 3 0 0 1-3 3h-5l-5 3v-3H6a3 3 0 0 1-3-3V7a3 3 0 0 1 3-3z"/><path d="M9 11h6m-3-3v6"/></symbol><symbol id="brand-gemini" viewBox="0 0 24 24" fill="currentColor" stroke="none"><path d="M12 0C10.5 7.5 7.5 10.5 0 12c7.5 1.5 10.5 4.5 12 12 1.5-7.5 4.5-10.5 12-12C16.5 10.5 13.5 7.5 12 0Z"/></symbol></svg>